PathFileType	4	(X/Y/Z)	/home/abdul/Desktop/myosuite/custom_workspace/IK/output/S14_12_2.trc
DataRate	CameraRate	NumFrames	NumMarkers	Units	OrigDataRate	OrigDataStartFrame	OrigNumFrames
200.0	200.0	50	3	mm	200.0	1328	2124
Frame#	Time	V_Shoulder			V_Elbow			V_Wrist		
		X1	Y1	Z1	X2	Y2	Z2	X3	Y3	Z3

1328	6.635	-168.206110189462	705.1103827241906	314.23885155955617	-203.04181818407739	459.0991236672563	90.94367261690888	-111.48881773552733	533.0972724045762	301.6526009790392
1329	6.64	-168.21819406399928	705.1220261559383	314.229804391204	-203.1086797275965	459.1506996304944	90.87660654950335	-111.41257517061851	532.8672472693468	301.638428838953
1330	6.645	-168.2301760461711	705.132522832111	314.22069959859033	-203.1779020106971	459.20602529230996	90.80457128131246	-111.33010655190678	532.6183819179896	301.62235758286886
1331	6.65	-168.24205103792144	705.1418135900834	314.2115553068454	-203.24948068002215	459.2651146214658	90.72754837061946	-111.24122443049225	532.3500157968665	301.6043132423008
1332	6.655	-168.25381409190496	705.1498378637302	314.2023894927492	-203.32340650408898	459.32797686998254	90.64552240953279	-111.14574606399961	532.0614920957997	301.5842148416185
1333	6.66	-168.26546041669226	705.156533724592	314.19321992420356	-203.39966528039938	459.39461646213425	90.55848098969575	-111.04349395938394	531.7521591495622	301.5619741142202
1334	6.665	-168.27698538146976	705.16183792697	314.1840640994656	-203.47823775367127	459.46503289155	90.46641466125661	-110.93429641106287	531.4213718561398	301.53749523002034
1335	6.67	-168.28838452022023	705.1656859569475	314.17493918632175	-203.55909954571453	459.53922062681175	90.36931688534993	-110.81798803255367	531.0684931071464	301.5106745358919
1336	6.675	-168.29965353536895	705.1680120853316	314.1658619613874	-203.64222109743156	459.61716902591775	90.2671839803754	-110.69441027979383	530.6928952256285	301.48140031072626
1337	6.68	-168.31078830088373	705.1687494244889	314.15684874971555	-203.7275676233783	459.6988622599555	90.16001506239292	-110.56341196432902	530.2939614063623	301.44955253678563
1338	6.685	-168.3217848648171	705.1678299890501	314.1479153649032	-203.81509907927253	459.7842792463042	90.047811979985	-110.42484975456412	529.8710871536612	301.41500268902405
1339	6.69	-168.33263945128115	705.1651847604421	314.13907704988543	-203.90477014278548	459.87339359165924	89.93057924396867	-110.27858866329217	529.4236817116285	301.377613544048
1340	6.695	-168.34334846184757	705.1607437551943	314.130348418606	-203.9965302078971	459.9661735451407	89.80832395236685	-110.12450251974046	528.9511694817547	301.33723901037035
1341	6.7	-168.35390847636572	705.1544360969596	314.12174339875634	-204.09032339303803	460.062581961721	89.68105571107742	-109.96247442440472	528.4529914227372	301.29372398158324
1342	6.705	-168.36431625319463	705.1461900921796	314.11327517577223	-204.1860885631827	460.162576276172	89.54878655070226	-109.79239718498049	527.9286064274199	301.2469042140368
1343	6.71	-168.37456872884573	705.1359333093096	314.1049561382785	-204.28375936599608	460.2661084877011	89.4115308400217	-109.61417373174473	527.3774926717845	301.1966062305629
1344	6.715	-168.38466301703457	705.1235926615108	314.0967978251685	-204.3832642820738	460.37312515541345	89.26930519661975	-109.42771751079155	526.7991489310032	301.1426472517202
1345	6.72	-168.3945964071423	705.1090944927074	314.0888108745052	-204.48452668925205	460.4835674046989	89.12212839518321	-109.23295285358316	526.1930958576611	301.08483515596873
1346	6.725	-168.40436636208855	705.0923646668953	314.08100497442575	-204.58746494089877	460.59737094461315	88.97002127401231	-109.02981532134001	525.5588772173851	301.0229684700991
1347	6.73	-168.41397051561987	705.0733286605752	314.0733888162291	-204.69199245803452	460.71446609628293	88.81300664029251	-108.8182520228641	524.8960610772714	300.9568363911476
1348	6.735	-168.4234066690179	705.0519116581804	314.06597004982206	-204.79801783506582	460.8347778323307	88.65110917468566	-108.59822190446414	524.2042409426913	300.88621884092913
1349	6.74	-168.4326727872356	705.0280386503515	314.0587552416943	-204.90544495885152	460.95822582728067	88.48435533580403	-108.36969601073295	523.4830368382618	300.810886554205
1350	6.745	-168.44176699446874	705.0016345349067	314.0517498355864	-205.0141731407617	461.08472451887013	88.31277326513376	-108.13265771501437	522.732096329002	300.73060120138166
1351	6.75	-168.45068756917365	704.9726242203415	314.04495811601106	-205.12409726132603	461.2141831801556	88.13639269297198	-107.8871029184894	521.9510954779563	300.64511554650744
1352	6.755	-168.45943293854154	704.9409327316883	314.03838317477863	-205.23510792701313	461.34650600227167	87.95524484593832	-107.6330402169092	521.1397397368419	300.5541736411933
1353	6.76	-168.46800167244317	704.9064853185508	314.03202688067233	-205.34709163862578	461.48159218766284	87.76936235661307	-107.37049103410536	520.2977647665805	300.4575110549398
1354	6.765	-168.4763924768583	704.8692075651276	314.0258898524101	-205.45993097074478	461.619336053581	87.57877917584256	-107.09948972151615	519.4249371848883	300.35485514219874
1355	6.77	-168.48460418680534	704.8290255020238	314.0199714350213	-205.5735047616052	461.75962714560586	87.38353048823834	-106.82008362307934	518.521055238431	300.24592534634155
1356	6.775	-168.4926357587883	704.7858657196458	314.0142696797578	-205.68768831274397	461.90235036091957	87.18365263137744	-106.53233310495855	517.5859493973991	300.1304335405405
1357	6.78	-168.5004862627804	704.7396554829676	314.00878132764905	-205.80235359771603	462.0473860810356	86.97918301919027	-106.2363115496913	516.6194828707145	300.00808440540527
1358	6.785	-168.50815487376283	704.6903228474457	314.003501796802	-205.91736947914012	462.1946103136586	86.77016006999742	-105.93210531447022	515.6215520404457	299.8785758430454
1359	6.79	-168.51564086284097	704.6377967758632	313.998425173533	-206.03260193330374	462.34389484332513	86.55662313962912	-105.61981365339666	514.5920868143816	299.74159942705967
1360	6.795	-168.52294358795882	704.5820072558655	313.9935442074124	-206.14791428152841	462.49510739045434	86.33861246003056	-105.29954860367499	513.5310508960869	299.5968408877805
1361	6.8	-168.53006248423614	704.5228854179564	313.98885031028686	-206.2631674274753	462.6481117784149	86.11616908372241	-104.97143483584851	512.4384419721466	299.4439806319285
1362	6.805	-168.53699705395084	704.4603636537119	313.9843335593362	-206.3782200995542	462.80276810820044	85.88933483445055	-104.63560946831129	511.31429181667363	299.2826942956649
1363	6.81	-168.54374685619328	704.3943757339686	313.979982704207	-206.4929290975872	462.95893294028497	85.65815226432049	-104.29222184646464	510.15866631353043	299.1126533298592
1364	6.815	-168.55031149621718	704.3248569267406	313.9757851782529	-206.60714954287215	463.11645948322155	85.42266461767139	-103.94143328702282	508.9716653970808	298.9335256162266
1365	6.82	-168.5566906145152	704.2517441146143	313.97172711390334	-206.72073513079135	463.2751977885314	85.18291580190315	-103.5834167881071	507.7534229126403	298.74497611282845
1366	6.825	-168.56288387564555	704.1749759113726	313.9677933621612	-206.83353838511312	463.43499495142623	84.93895036542588	-103.21835670590185	506.504106398142	298.54666752727724
1367	6.83	-168.56889095683917	704.0944927775921	313.9639675162262	-206.94541091314647	463.5956953168975	84.69081348285613	-102.8464483987791	505.22391678886254	298.3382610158359
1368	6.835	-168.57471153641563	704.0102371349703	313.9602319392217	-207.05620366092256	463.7571406907043	84.4385509475388	-102.46789783992818	503.9130880473684	298.11941690646495
1369	6.84	-168.58034528203743	703.9221534791226	313.9565677959906	-207.1657671675968	463.9191705547877	84.18220917142699	-102.08292119965498	502.57188672114114	297.8897954437358
1370	6.845	-168.58579183883307	703.8301884906022	313.95295508891513	-207.27395181829036	464.0816222866422	83.9218351923053	-101.69174439863855	501.20061143061446	297.64905755340465
1371	6.85	-168.59105081741924	703.7342911438988	313.94937269769895	-207.3806080946187	464.24433138217705	83.65747668829482	-101.29460263355291	499.7995922906117	297.3968656243288
1372	6.855	-168.59612178185313	703.6344128141636	313.94579842303915	-207.48558682218925	464.40713168160414	83.38918199953218	-100.8917398765742	498.36919026840565	297.13288430530287
1373	6.86	-168.60100423754602	703.5305073814235	313.942209034102	-207.5887394143851	464.5698555978973	83.11700015686809	-100.48340835040293	496.90979648182747	296.85678131429654
1374	6.865	-168.6056976191704	703.4225313320453	313.9385803197023	-207.68991811179527	464.7323343473763	82.8409809173862	-100.06986798053076	495.42183144103524	296.56822825749555
1375	6.87	-168.6102012785917	703.3104438572173	313.9348871430756	-207.7889762166939	464.8943981819772	82.561174806499	-99.65138582657578	493.90574423770676	296.26690145547536
1376	6.875	-168.61451447285762	703.1942069482188	313.9311035001189	-207.88576832201784	465.0558766227838	82.2776331663341	-99.22823549459507	492.3620116855492	295.9524827737756
1377	6.88	-168.61863635227692	703.0737854882573	313.92720258096284	-207.98015053434065	465.2165986944091	81.99040821008433	-98.80069653236056	490.79113741611815	295.6246604550987
